HIERARCHY
ROOT Hips
{
	OFFSET	0.00	0.00	0.00
	CHANNELS 6 Xposition Yposition Zposition Zrotation Xrotation Yrotation
	JOINT LeftUpLeg
	{
		OFFSET	 0.126116	-0.014019	-0.065224
		CHANNELS 3 Zrotation Xrotation Yrotation
		JOINT LeftLeg
		{
			OFFSET	 0.000000	 0.000000	 0.569914
			CHANNELS 3 Zrotation Xrotation Yrotation
			JOINT LeftFoot
			{
				OFFSET	 0.000000	 0.000000	 0.544423
				CHANNELS 3 Zrotation Xrotation Yrotation
				JOINT LeftToeBase
				{
					OFFSET	 0.000000	 0.000000	 0.207117
					CHANNELS 3 Zrotation Xrotation Yrotation
					End Site
					{
						OFFSET	 0.000000	 0.000000	 0.207117
					}
				}
			}
		}
	}
	JOINT RightUpLeg
	{
		OFFSET	-0.124023	-0.008373	-0.065224
		CHANNELS 3 Zrotation Xrotation Yrotation
		JOINT RightLeg
		{
			OFFSET	 0.000000	 0.000000	 0.570047
			CHANNELS 3 Zrotation Xrotation Yrotation
			JOINT RightFoot
			{
				OFFSET	 0.000000	 0.000000	 0.544354
				CHANNELS 3 Zrotation Xrotation Yrotation
				JOINT RightToeBase
				{
					OFFSET	 0.000000	 0.000000	 0.207540
					CHANNELS 3 Zrotation Xrotation Yrotation
					End Site
					{
						OFFSET	 0.000000	 0.000000	 0.207540
					}
				}
			}
		}
	}
	JOINT Spine
	{
		OFFSET	 0.000184	-0.007763	 0.117403
		CHANNELS 3 Zrotation Xrotation Yrotation
		JOINT Spine1
		{
			OFFSET	 0.000000	 0.000000	 0.137269
			CHANNELS 3 Zrotation Xrotation Yrotation
			JOINT Spine2
			{
				OFFSET	 0.000000	 0.000000	 0.156879
				CHANNELS 3 Zrotation Xrotation Yrotation
				JOINT LeftShoulder
				{
					OFFSET	 0.080501	-0.002496	 0.160144
					CHANNELS 3 Zrotation Xrotation Yrotation
					JOINT LeftArm
					{
						OFFSET	 0.000000	 0.000000	 0.164363
						CHANNELS 3 Zrotation Xrotation Yrotation
						JOINT LeftForeArm
						{
							OFFSET	 0.000000	 0.000000	 0.364576
							CHANNELS 3 Zrotation Xrotation Yrotation
							JOINT LeftHand
							{
								OFFSET	 0.000000	 0.000000	 0.360812
								CHANNELS 3 Zrotation Xrotation Yrotation
								JOINT LeftHandIndex1
								{
									OFFSET	 0.000000	 0.000000	 0.086006
									CHANNELS 3 Zrotation Xrotation Yrotation
									JOINT LeftHandIndex2
									{
										OFFSET	 0.000000	 0.000000	 0.047236
										CHANNELS 3 Zrotation Xrotation Yrotation
										JOINT LeftHandIndex3
										{
											OFFSET	-0.004284	-0.000551	 0.038166
											CHANNELS 3 Zrotation Xrotation Yrotation
											End Site
											{
												OFFSET	-0.004284	-0.000551	 0.038166
											}
										}
									}
								}
							}
						}
					}
				}
				JOINT Neck
				{
					OFFSET	 0.000000	 0.000000	 0.176489
					CHANNELS 3 Zrotation Xrotation Yrotation
					JOINT Head
					{
						OFFSET	 0.000000	-0.001747	 0.077940
						CHANNELS 3 Zrotation Xrotation Yrotation
						End Site
						{
							OFFSET	 0.000000	-0.001747	 0.077940
						}
					}
				}
				JOINT RightShoulder
				{
					OFFSET	-0.080363	 0.000306	 0.159706
					CHANNELS 3 Zrotation Xrotation Yrotation
					JOINT RightArm
					{
						OFFSET	 0.000000	 0.000000	 0.164196
						CHANNELS 3 Zrotation Xrotation Yrotation
						JOINT RightForeArm
						{
							OFFSET	 0.000000	 0.000000	 0.365611
							CHANNELS 3 Zrotation Xrotation Yrotation
							JOINT RightHand
							{
								OFFSET	 0.000000	 0.000000	 0.360648
								CHANNELS 3 Zrotation Xrotation Yrotation
								JOINT RightHandIndex1
								{
									OFFSET	 0.000000	 0.000000	 0.069977
									CHANNELS 3 Zrotation Xrotation Yrotation
									JOINT RightHandIndex2
									{
										OFFSET	 0.000000	 0.000000	 0.052305
										CHANNELS 3 Zrotation Xrotation Yrotation
										JOINT RightHandIndex3
										{
											OFFSET	 0.009002	-0.000782	 0.042196
											CHANNELS 3 Zrotation Xrotation Yrotation
											End Site
											{
												OFFSET	 0.009002	-0.000782	 0.042196
											}
										}
									}
								}
							}
						}
					}
				}
			}
		}
	}
}
MOTION
Frames:    10
Frame Time: 0.03333334
 0.011949	 0.063718	 1.201326	 4.186011	-1.816104	-3.704736	 19.242690	-10.407770	-175.225600	 0.368200	-39.279430	-0.002081	 60.074810	 82.350650	-63.442610	-2.371167	 31.315720	-0.063168	-21.961610	-30.949730	-174.432200	 10.286450	-52.999730	 8.826715	 5.397199	 71.184070	 1.083090	 2.357930	 33.152470	 0.106771	 1.433613	 8.938880	 0.848151	 1.949540	 3.465044	 3.392529	-9.426465	-2.727582	-4.416570	-93.784720	 58.855440	 175.728900	 11.473000	 28.624210	-42.524480	-0.936627	-0.048407	-0.698374	 0.426532	-7.422463	-6.036810	-4.870872	 19.207570	-2.785064	-3.886060	 21.414800	 2.207353	-4.807968	 5.548992	 0.146766	-0.122381	-5.019659	 0.160461	-11.470880	 1.606651	 2.155452	 89.828320	 61.586620	-179.890100	-19.092460	 49.526540	 10.324750	-0.841368	-1.851614	 10.411600	-4.934611	 6.612757	 0.754209	 6.303536	 25.899660	-0.574463	 1.741184	 45.841010	-6.864061	 0.366140	 24.974210	 3.650220
 0.009635	 0.011508	 1.191809	 5.314530	-1.199527	-3.691950	 19.280170	-9.178297	-176.449900	 1.096565	-40.648110	 0.484563	 82.786690	 84.295970	-86.548850	-2.369232	 31.642110	-0.070545	-26.880030	-35.528560	-177.503400	 10.447560	-47.910560	 8.363345	-1.274199	 74.776510	 7.788163	 2.358929	 33.005720	 0.103358	-7.067669	 8.679366	 0.718912	 1.797424	 3.345370	 3.406825	-9.590020	-2.671630	-4.347445	-94.005390	 58.964060	 175.245500	 9.422177	 24.956000	-42.913590	-5.834114	 0.156075	-2.605394	 0.410950	-7.595829	-7.821626	-4.868561	 19.283780	-2.793634	-3.875851	 21.545300	 2.196990	-4.805633	 5.576487	 0.145156	-0.060635	-5.089151	 0.200260	-11.428700	 1.710626	 1.922057	 89.755780	 61.686410	 179.937200	-18.883790	 51.040570	 6.857695	 2.530122	-1.347356	 14.656760	-4.353427	 7.380322	 0.405750	 6.287356	 24.337470	-0.540624	 1.950227	 44.172050	-7.050723	 0.629773	 23.820330	 3.516147
 0.006640	-0.051770	 1.181051	 6.139827	-0.382125	-3.791695	 19.326860	-7.080211	-177.898000	 1.458027	-40.975870	 0.724847	 117.478500	 85.172730	-121.209800	-2.367517	 31.924300	-0.076951	-31.456380	-38.173410	 178.321900	 10.049310	-38.089020	 6.716093	-11.557070	 74.098670	 17.873420	 2.359477	 32.924690	 0.101477	-14.388330	 8.161436	 0.641998	 1.561169	 3.473175	 3.451096	-9.718325	-2.742949	-4.330040	-94.224400	 58.993010	 174.774700	 6.899382	 21.180350	-43.269420	-9.765613	 0.559627	-4.296048	 0.519240	-7.925847	-8.459843	-4.859180	 19.515940	-2.807285	-3.862265	 21.718420	 2.183187	-4.801564	 5.624401	 0.142353	-0.018939	-5.129066	 0.266128	-11.418830	 1.809934	 1.819069	 89.660510	 61.843770	 179.708100	-18.558750	 52.506110	 4.481872	 5.062979	-0.344672	 15.654710	-4.121710	 8.094685	-0.107665	 6.263492	 22.706900	-0.570018	 2.131129	 42.635010	-7.210777	 0.984229	 22.231080	 3.342841
 0.003417	-0.108912	 1.167601	 6.523983	 0.329998	-4.146677	 19.812830	-4.960221	-179.138200	 1.663475	-41.159950	 0.862772	 150.503700	 84.396640	-154.080300	-2.364595	 32.389130	-0.087569	-34.027640	-40.459870	 175.014200	 10.176200	-31.110170	 5.661885	-17.375560	 73.612530	 22.969030	 2.360684	 32.744600	 0.097307	-20.677730	 7.594882	 0.843144	 1.376229	 3.664426	 3.453892	-9.768246	-2.761400	-4.295158	-94.394940	 58.981810	 174.412900	 4.945693	 18.627190	-43.544530	-13.882880	 1.133129	-5.848645	-0.031710	-8.449838	-7.990078	-4.842562	 19.886310	-2.820892	-3.844460	 21.944130	 2.165087	-4.790421	 5.755556	 0.134650	-0.000519	-5.199889	 0.323220	-11.415770	 1.895190	 1.806194	 89.533300	 61.983200	 179.399500	-17.902490	 53.343560	 3.264698	 6.984203	 0.697697	 15.032380	-4.118748	 8.807426	-1.188359	 6.231082	 20.866110	-0.635810	 2.303304	 41.085840	-7.361695	 1.396186	 20.330340	 3.151884
-0.000694	-0.163342	 1.149864	 6.671864	 0.674035	-4.478138	 20.441550	-2.617453	 179.332200	 1.816832	-41.602480	 0.972234	 172.985700	 82.857460	-176.253700	-2.356428	 33.598860	-0.115618	-35.176540	-45.124870	 172.107300	 10.177190	-30.382140	 5.581025	-33.919690	 80.645010	 38.589320	 2.350207	 34.228320	 0.132065	-26.547780	 7.183270	 1.090385	 1.249076	 4.128720	 3.342859	-9.716139	-2.805325	-4.185165	-94.487650	 58.954750	 174.219700	 3.081733	 16.997820	-43.944400	-17.835080	 1.898333	-7.370450	-0.915099	-8.534406	-7.588506	-4.824790	 20.285420	-2.837311	-3.819778	 22.254750	 2.140024	-4.765061	 6.053168	 0.117079	 0.032524	-5.297518	 0.346399	-11.322230	 1.970059	 1.729634	 89.427760	 62.050000	 179.142700	-16.761660	 53.836770	 1.700975	 8.730415	 1.748443	 15.093830	-3.924006	 9.209104	-2.784609	 6.188718	 18.613400	-0.717882	 2.588746	 38.315760	-7.608468	 1.865666	 18.095470	 2.948695
-0.004995	-0.213650	 1.134023	 6.937353	 0.691111	-4.669893	 20.820770	-0.104386	 177.688700	 2.048931	-41.351250	 1.120826	-173.913500	 82.081660	 170.910300	-2.339505	 35.786370	-0.167929	-36.785400	-48.674820	 169.647600	 11.170510	-31.741890	 6.341718	-50.430640	 82.836290	 54.282400	 2.335886	 36.010620	 0.175113	-31.297450	 7.335929	 1.200810	 1.087349	 3.779057	 3.345440	-9.604476	-2.642566	-4.111527	-94.542850	 58.902620	 174.110800	 1.650117	 16.278610	-43.888760	-20.645030	 2.683156	-8.603764	-1.628459	-9.223796	-7.972577	-4.841980	 20.484450	-2.995561	-3.793384	 22.584200	 2.113211	-4.730427	 6.457451	 0.092979	 0.098286	-5.386620	 0.354953	-11.144710	 2.127272	 1.505451	 89.362480	 61.981330	 178.987400	-15.505010	 53.927880	 0.205143	 10.309530	 2.714669	 14.966880	-3.409990	 9.018840	-4.081397	 6.164669	 16.554470	-0.700798	 2.840181	 35.646200	-7.821788	 2.283115	 16.049290	 2.781594
-0.011262	-0.279139	 1.118424	 7.209006	 0.604388	-4.388588	 21.145070	 3.463297	 175.153500	 2.562527	-39.433690	 1.404056	-152.191300	 83.339710	 149.626800	-2.290815	 40.625660	-0.292527	-38.165730	-49.409060	 167.603800	 11.128950	-32.751900	 6.496726	-47.223450	 80.969890	 51.939590	 2.338458	 35.708010	 0.167695	-36.046950	 7.390296	 1.029067	 0.798890	 3.064099	 3.054048	-9.435351	-2.175951	-3.886410	-94.522680	 59.181400	 174.107400	 0.396329	 16.091180	-43.236430	-23.704320	 3.677728	-9.872714	-2.731637	-10.288430	-8.779090	-4.874890	 20.592600	-3.219087	-3.766704	 22.914220	 2.086128	-4.681450	 7.025305	 0.058676	 0.173998	-5.476489	 0.284178	-10.847910	 2.347557	 1.362833	 89.356170	 61.685980	 178.983200	-14.287060	 53.447080	 0.007367	 12.359130	 3.707187	 12.268760	-2.930220	 8.499572	-5.301476	 6.184449	 14.252880	-0.460302	 3.006272	 33.753850	-7.960306	 2.734472	 13.777710	 2.616000
-0.018441	-0.347110	 1.104996	 7.506198	 0.209949	-3.449741	 21.693570	 6.024847	 171.504700	 2.025153	-40.075460	 1.076885	-113.797100	 83.360890	 113.283700	-2.156026	 49.106990	-0.553628	-37.800870	-47.831450	 167.136000	 7.650066	-35.901940	 4.953764	-42.318280	 76.602240	 52.398350	 2.340845	 35.420960	 0.160703	-39.821620	 7.450082	 0.182719	 0.373859	 2.346136	 2.801500	-9.265643	-1.561479	-3.763735	-94.453130	 59.372540	 174.224700	-0.106211	 16.061000	-42.127680	-26.753060	 4.733614	-10.983710	-3.764659	-10.507510	-9.022857	-4.893660	 20.716560	-3.368270	-3.753661	 23.074420	 2.072889	-4.625900	 7.663676	 0.019476	 0.260722	-5.475684	 0.240943	-10.518860	 2.610242	 1.653721	 89.353670	 61.419150	 178.987000	-13.335490	 52.794180	-0.336480	 14.391660	 4.633355	 11.081200	-2.866929	 7.905626	-6.034848	 6.272767	 11.965800	 0.040292	 3.132846	 32.237850	-8.064452	 3.127710	 11.751980	 2.485070
-0.025470	-0.417233	 1.095101	 8.544195	-0.575932	-2.516957	 22.476340	 6.855420	 167.419400	-0.350717	-43.214230	-0.481673	-62.115550	 80.075330	 66.560070	-1.949009	 56.765700	-0.868829	-36.943370	-45.926990	 168.053100	 7.644280	-40.312450	 5.458587	-39.995640	 69.934260	 54.836420	 2.333942	 36.236000	 0.180662	-42.484820	 7.754084	-0.701520	-0.016453	 1.899820	 2.628384	-9.186789	-0.996545	-3.739099	-94.393440	 59.063820	 174.403200	 0.263092	 15.730400	-41.211030	-29.624880	 5.783189	-11.912430	-4.353496	-9.364913	-8.664363	-4.896173	 20.917990	-3.450632	-3.734385	 23.310150	 2.053320	-4.568264	 8.319707	-0.021529	 0.367644	-5.414196	 0.287069	-10.239330	 3.016888	 2.047643	 89.218000	 61.414170	 178.666400	-12.630730	 52.320340	-0.769765	 16.578370	 5.682282	 12.016150	-2.745048	 7.361515	-5.455523	 6.340295	 9.918038	 0.371740	 3.305458	 30.061980	-8.204287	 3.429026	 10.172760	 2.393445
-0.034931	-0.491764	 1.092595	 10.069310	-1.231099	-1.381703	 21.305600	 5.521145	 163.880400	 1.129539	-49.136450	 0.587498	-27.549120	 70.405990	 36.554310	-1.091922	 70.361630	-1.908291	-39.688790	-45.190590	 167.498100	 10.646770	-47.155250	 8.413129	-32.739540	 67.983480	 48.090600	 2.345430	 34.850250	 0.146919	-43.507110	 7.856565	-1.484693	-0.315950	 1.644947	 2.164002	-9.200037	-0.423937	-3.545093	-94.275140	 59.242610	 174.628500	 1.498559	 16.062370	-40.692660	-31.661840	 6.844383	-12.721760	-4.311558	-7.657950	-9.024874	-4.833723	 21.219400	-3.182176	-3.687832	 23.873170	 2.006073	-4.518854	 8.876863	-0.056938	 0.404103	-5.337420	 0.253908	-10.047840	 3.549462	 2.226799	 89.046700	 60.986610	 178.287300	-11.994710	 51.764450	-0.852852	 19.637360	 6.756417	 12.827990	-1.811777	 6.930579	-4.101454	 6.364197	 8.657845	 0.483095	 3.386720	 28.992150	-8.269169	 3.628355	 9.116192	 2.337100
